<?xml version="1.0" encoding="utf-8"?>
<!-- Generator: Adobe Illustrator 16.0.3, SVG Export Plug-In . SVG Version: 6.00 Build 0)  -->
<!DOCTYPE svg PUBLIC "-//W3C//DTD SVG 1.1//EN" "http://www.w3.org/Graphics/SVG/1.1/DTD/svg11.dtd">
<svg version="1.1" id="Layer_1" xmlns="http://www.w3.org/2000/svg" xmlns:xlink="http://www.w3.org/1999/xlink" x="0px" y="0px"
	 width="831px" height="460px" viewBox="0 0 831 460" enable-background="new 0 0 831 460" xml:space="preserve">
<path fill="#FFFFFF" stroke="#000000" stroke-width="25.8449" d="M816.371,232.086c0,15.453-13.088,27.978-29.229,27.978H44.227
	C28.083,260.063,15,247.539,15,232.086V43.841c0-15.457,13.083-27.982,29.227-27.982h742.915c16.142,0,29.229,12.525,29.229,27.982
	V232.086z"/>
<path d="M175.966,213.359c-9.891,2.418-20.669,3.629-32.333,3.629c-12.096,0-23.23-1.921-33.401-5.765
	c-10.175-3.84-18.924-9.246-26.252-16.219c-7.329-6.97-13.055-15.329-17.181-25.077c-4.127-9.744-6.188-20.595-6.188-32.547
	c0-12.092,2.097-23.05,6.295-32.867c4.195-9.818,9.994-18.175,17.394-25.078c7.397-6.899,16.077-12.198,26.037-15.899
	c9.958-3.698,20.703-5.55,32.228-5.55c11.951,0,23.05,1.814,33.294,5.443c10.245,3.627,18.568,8.502,24.971,14.619l-23.05,26.251
	c-3.559-4.125-8.253-7.504-14.086-10.137c-5.836-2.632-12.453-3.949-19.849-3.949c-6.402,0-12.309,1.174-17.714,3.522
	c-5.409,2.347-10.104,5.623-14.085,9.817c-3.985,4.199-7.079,9.177-9.284,14.94c-2.208,5.762-3.309,12.059-3.309,18.888
	c0,6.974,0.994,13.376,2.988,19.209c1.991,5.835,4.942,10.852,8.857,15.046c3.912,4.198,8.751,7.471,14.513,9.817
	c5.763,2.348,12.342,3.521,19.742,3.521c4.27,0,8.324-0.319,12.165-0.959c3.841-0.64,7.396-1.67,10.67-3.094V153.39h-28.811v-29.454
	h62.318v80.034C194.496,207.81,185.852,210.942,175.966,213.359z M231.774,213.145V62.042h101.588v30.733h-66.374v28.599h62.746
	v29.239h-62.746v31.373h70.217v31.159H231.774z M425.988,93.202v119.943h-36.497V93.202h-42.684v-31.16h121.867v31.16H425.988z"/>
<path fill="#87888A" d="M530.136,213.145V102.165l-28.17,21.769l-18.568-25.397l49.709-36.495h32.672v151.103H530.136
	L530.136,213.145z"/>
<polygon fill="#FFFFFF" points="155.972,444.273 355.252,264.305 538.088,259.873 "/>
<rect x="362.715" y="243.235" fill="#FFFFFF" width="177.111" height="27.855"/>
<path d="M351.737,250.216l-125.74,109.908c-25.848,22.59-51.694,45.183-77.541,67.772c-12.549,10.972,4.14,30.707,16.707,19.721
	c41.914-36.635,83.827-73.271,125.741-109.908c25.848-22.591,51.695-45.184,77.542-67.775
	C380.992,258.964,364.302,239.23,351.737,250.216L351.737,250.216z M165.524,449.344l119.442-56.168
	c66.445-31.242,132.891-62.487,199.335-93.732l59.507-27.98c15.08-7.091,3.655-30.277-11.442-23.179
	c-39.813,18.723-79.626,37.443-119.442,56.166c-66.446,31.244-132.891,62.489-199.336,93.731l-59.505,27.98
	C139.002,433.256,150.425,456.44,165.524,449.344L165.524,449.344z"/>
<rect x="351.294" y="226.239" fill="#FFFFFF" width="200.508" height="20.345"/>
<rect x="446.03" y="69.666" fill="#FFFFFF" width="15.749" height="15.752"/>
<g>
	<path fill="#87888A" d="M616.147,242.133h-28.811l16.007-60.613h33.505L616.147,242.133z M661.604,215.666v-29.83l58.905-53.261
		c3.7-3.551,6.687-7.172,8.965-10.868c2.274-3.691,3.415-7.81,3.415-12.355c0-5.395-1.708-9.765-5.122-13.102
		c-3.415-3.337-7.972-5.01-13.659-5.01c-5.975,0-10.852,2.102-14.621,6.296c-3.77,4.198-6.011,9.71-6.721,16.541l-34.36-4.695
		c0.853-7.685,2.95-14.527,6.293-20.529c3.343-6.003,7.576-11.114,12.699-15.344c5.122-4.226,10.991-7.451,17.606-9.671
		c6.62-2.221,13.625-3.331,21.023-3.331c6.972,0,13.731,0.927,20.277,2.774c6.542,1.85,12.378,4.696,17.5,8.537
		c5.121,3.842,9.209,8.68,12.271,14.513c3.058,5.835,4.59,12.666,4.59,20.488c0,5.408-0.714,10.28-2.136,14.619
		c-1.424,4.342-3.382,8.361-5.868,12.059c-2.493,3.702-5.334,7.15-8.539,10.351c-3.2,3.201-6.509,6.37-9.923,9.497l-35.001,31.159
		h61.679v31.159H661.604V215.666z"/>
</g>
</svg>
